<svg width="335" height="120" viewBox="0 0 335 120" fill="none" xmlns="http://www.w3.org/2000/svg">
<path d="M78 0.719994C80.4533 0.719994 82.2667 0.826662 83.44 1.04C84.72 1.14666 86.1067 1.62666 87.6 2.47999C89.2 3.33333 90.32 4.77333 90.96 6.79999C91.6 8.82666 91.92 11.5467 91.92 14.96C91.92 18.3733 91.6 21.0933 90.96 23.12C90.32 25.1467 89.2 26.5867 87.6 27.44C86 28.1867 84.56 28.6667 83.28 28.88C82.1067 28.9867 80.24 29.04 77.68 29.04H28.72V45.2H60.24C62.8 45.2 64.6667 45.3067 65.84 45.52C67.12 45.6267 68.56 46.1067 70.16 46.96C72.9333 48.56 74.32 52.7733 74.32 59.6C74.32 67.0667 72.2933 71.4933 68.24 72.88C66.5333 73.4133 63.8133 73.68 60.08 73.68H28.72V103.92C28.72 106.48 28.6133 108.347 28.4 109.52C28.2933 110.693 27.8133 112.08 26.96 113.68C25.4667 116.56 21.3067 118 14.48 118C7.01333 118 2.64 115.973 1.36 111.92C0.720001 110.213 0.4 107.493 0.4 103.76V14.8C0.4 9.35999 1.41333 5.67999 3.44 3.75999C5.46667 1.73333 9.30667 0.719994 14.96 0.719994H78ZM85.5 75.92C85.5 63.12 89.98 52.56 98.94 44.24C107.9 35.92 118.14 31.76 129.66 31.76C141.18 31.76 151.367 35.92 160.22 44.24C169.073 52.4533 173.5 62.96 173.5 75.76C173.5 84.6133 171.207 92.5067 166.62 99.44C162.033 106.267 156.433 111.333 149.82 114.64C143.313 117.84 136.54 119.44 129.5 119.44C122.46 119.44 115.633 117.733 109.02 114.32C102.407 110.8 96.8067 105.68 92.22 98.96C87.74 92.1333 85.5 84.4533 85.5 75.92ZM118.94 87.44C122.353 90 125.82 91.28 129.34 91.28C132.86 91.28 136.38 89.9467 139.9 87.28C143.42 84.6133 145.18 80.6667 145.18 75.44C145.18 70.2133 143.527 66.32 140.22 63.76C136.913 61.2 133.34 59.92 129.5 59.92C125.66 59.92 122.087 61.2533 118.78 63.92C115.473 66.5867 113.82 70.5333 113.82 75.76C113.82 80.88 115.527 84.7733 118.94 87.44ZM241.118 34.64C243.144 35.28 244.798 36.4 246.078 38C247.464 39.4933 248.158 41.9467 248.158 45.36C248.158 48.7733 247.144 52.5067 245.118 56.56C243.091 60.6133 240.158 62.64 236.318 62.64C234.398 62.64 232.531 62.2133 230.718 61.36C229.011 60.5067 226.718 60.08 223.838 60.08C220.958 60.08 218.238 61.0933 215.678 63.12C213.224 65.1467 211.998 67.6 211.998 70.48V104.08C211.998 106.533 211.891 108.4 211.678 109.68C211.571 110.853 211.091 112.24 210.238 113.84C208.638 116.613 204.478 118 197.758 118C192.638 118 188.958 117.093 186.718 115.28C185.011 113.787 184.051 111.493 183.838 108.4C183.838 107.333 183.838 105.787 183.838 103.76V47.6C183.838 45.1467 183.891 43.3333 183.998 42.16C184.211 40.88 184.691 39.4933 185.438 38C186.931 35.12 191.091 33.68 197.918 33.68C204.318 33.68 208.318 34.9067 209.918 37.36C211.091 39.0667 211.678 40.8267 211.678 42.64C212.211 41.8933 212.958 40.9867 213.918 39.92C214.984 38.8533 217.171 37.4133 220.478 35.6C223.784 33.7867 226.664 32.88 229.118 32.88C231.678 32.88 233.811 33.04 235.518 33.36C237.224 33.5733 239.091 34 241.118 34.64ZM306.839 42.64C307.479 36.6667 311.692 33.68 319.479 33.68C323.639 33.68 326.732 34 328.759 34.64C330.785 35.28 332.172 36.4 332.919 38C333.772 39.6 334.252 41.04 334.359 42.32C334.572 43.4933 334.679 45.3067 334.679 47.76V103.76C334.679 106.213 334.572 108.08 334.359 109.36C334.252 110.533 333.825 111.92 333.079 113.52C331.585 116.293 327.905 117.68 322.039 117.68C316.279 117.68 312.385 116.987 310.359 115.6C308.439 114.107 307.319 111.973 306.999 109.2C303.052 114.853 296.439 117.68 287.159 117.68C277.985 117.68 269.452 113.467 261.559 105.04C253.665 96.6133 249.719 86.8533 249.719 75.76C249.719 64.56 253.665 54.8 261.559 46.48C269.559 38.0533 278.305 33.84 287.799 33.84C291.425 33.84 294.732 34.48 297.719 35.76C300.705 37.04 302.785 38.2667 303.959 39.44C305.132 40.5067 306.092 41.5733 306.839 42.64ZM277.719 75.92C277.719 79.44 279.105 82.64 281.879 85.52C284.652 88.2933 288.012 89.68 291.959 89.68C295.905 89.68 299.159 88.24 301.719 85.36C304.385 82.48 305.719 79.3333 305.719 75.92C305.719 72.4 304.439 69.1467 301.879 66.16C299.425 63.1733 296.065 61.68 291.799 61.68C287.639 61.68 284.225 63.1733 281.559 66.16C278.999 69.1467 277.719 72.4 277.719 75.92Z" fill="#2D3748"/>
</svg>
