<svg width="159" height="159" viewBox="0 0 159 159" fill="none" xmlns="http://www.w3.org/2000/svg">
<path d="M79.5 159C123.407 159 159 123.407 159 79.5C159 35.5934 123.407 0 79.5 0C35.5934 0 0 35.5934 0 79.5C0 123.407 35.5934 159 79.5 159Z" fill="#F687B3"/>
<path d="M88 131C121.689 131 149 103.466 149 69.5C149 35.5345 121.689 8 88 8C54.3106 8 27 35.5345 27 69.5C27 103.466 54.3106 131 88 131Z" fill="#EFFFFB" fill-opacity="0.51"/>
<path d="M96 102C119.748 102 139 82.7482 139 59C139 35.2518 119.748 16 96 16C72.2518 16 53 35.2518 53 59C53 82.7482 72.2518 102 96 102Z" fill="white"/>
</svg>
