<svg width="548" height="194" viewBox="0 0 548 194" fill="none" xmlns="http://www.w3.org/2000/svg">
<circle cx="79.5" cy="97.5" r="79.5" fill="#FF8AB4"/>
<ellipse cx="88" cy="87.5" rx="61" ry="61.5" fill="#EFFFFB" fill-opacity="0.51"/>
<circle cx="96" cy="77" r="43" fill="white"/>
<path d="M284 38.72C286.453 38.72 288.267 38.8267 289.44 39.04C290.72 39.1467 292.107 39.6267 293.6 40.48C295.2 41.3333 296.32 42.7733 296.96 44.8C297.6 46.8267 297.92 49.5467 297.92 52.96C297.92 56.3733 297.6 59.0933 296.96 61.12C296.32 63.1467 295.2 64.5867 293.6 65.44C292 66.1867 290.56 66.6667 289.28 66.88C288.107 66.9867 286.24 67.04 283.68 67.04H234.72V83.2H266.24C268.8 83.2 270.667 83.3067 271.84 83.52C273.12 83.6267 274.56 84.1067 276.16 84.96C278.933 86.56 280.32 90.7733 280.32 97.6C280.32 105.067 278.293 109.493 274.24 110.88C272.533 111.413 269.813 111.68 266.08 111.68H234.72V141.92C234.72 144.48 234.613 146.347 234.4 147.52C234.293 148.693 233.813 150.08 232.96 151.68C231.467 154.56 227.307 156 220.48 156C213.013 156 208.64 153.973 207.36 149.92C206.72 148.213 206.4 145.493 206.4 141.76V52.8C206.4 47.36 207.413 43.68 209.44 41.76C211.467 39.7333 215.307 38.72 220.96 38.72H284ZM291.5 113.92C291.5 101.12 295.98 90.56 304.94 82.24C313.9 73.92 324.14 69.76 335.66 69.76C347.18 69.76 357.367 73.92 366.22 82.24C375.073 90.4533 379.5 100.96 379.5 113.76C379.5 122.613 377.207 130.507 372.62 137.44C368.033 144.267 362.433 149.333 355.82 152.64C349.313 155.84 342.54 157.44 335.5 157.44C328.46 157.44 321.633 155.733 315.02 152.32C308.407 148.8 302.807 143.68 298.22 136.96C293.74 130.133 291.5 122.453 291.5 113.92ZM324.94 125.44C328.353 128 331.82 129.28 335.34 129.28C338.86 129.28 342.38 127.947 345.9 125.28C349.42 122.613 351.18 118.667 351.18 113.44C351.18 108.213 349.527 104.32 346.22 101.76C342.913 99.2 339.34 97.92 335.5 97.92C331.66 97.92 328.087 99.2533 324.78 101.92C321.473 104.587 319.82 108.533 319.82 113.76C319.82 118.88 321.527 122.773 324.94 125.44ZM447.118 72.64C449.144 73.28 450.798 74.4 452.078 76C453.464 77.4933 454.158 79.9467 454.158 83.36C454.158 86.7733 453.144 90.5067 451.118 94.56C449.091 98.6133 446.158 100.64 442.318 100.64C440.398 100.64 438.531 100.213 436.718 99.36C435.011 98.5067 432.718 98.08 429.838 98.08C426.958 98.08 424.238 99.0933 421.678 101.12C419.224 103.147 417.998 105.6 417.998 108.48V142.08C417.998 144.533 417.891 146.4 417.678 147.68C417.571 148.853 417.091 150.24 416.238 151.84C414.638 154.613 410.478 156 403.758 156C398.638 156 394.958 155.093 392.718 153.28C391.011 151.787 390.051 149.493 389.838 146.4C389.838 145.333 389.838 143.787 389.838 141.76V85.6C389.838 83.1467 389.891 81.3333 389.998 80.16C390.211 78.88 390.691 77.4933 391.438 76C392.931 73.12 397.091 71.68 403.918 71.68C410.318 71.68 414.318 72.9067 415.918 75.36C417.091 77.0667 417.678 78.8267 417.678 80.64C418.211 79.8933 418.958 78.9867 419.918 77.92C420.984 76.8533 423.171 75.4133 426.478 73.6C429.784 71.7867 432.664 70.88 435.118 70.88C437.678 70.88 439.811 71.04 441.518 71.36C443.224 71.5733 445.091 72 447.118 72.64ZM512.839 80.64C513.479 74.6667 517.692 71.68 525.479 71.68C529.639 71.68 532.732 72 534.759 72.64C536.785 73.28 538.172 74.4 538.919 76C539.772 77.6 540.252 79.04 540.359 80.32C540.572 81.4933 540.679 83.3067 540.679 85.76V141.76C540.679 144.213 540.572 146.08 540.359 147.36C540.252 148.533 539.825 149.92 539.079 151.52C537.585 154.293 533.905 155.68 528.039 155.68C522.279 155.68 518.385 154.987 516.359 153.6C514.439 152.107 513.319 149.973 512.999 147.2C509.052 152.853 502.439 155.68 493.159 155.68C483.985 155.68 475.452 151.467 467.559 143.04C459.665 134.613 455.719 124.853 455.719 113.76C455.719 102.56 459.665 92.8 467.559 84.48C475.559 76.0533 484.305 71.84 493.799 71.84C497.425 71.84 500.732 72.48 503.719 73.76C506.705 75.04 508.785 76.2667 509.959 77.44C511.132 78.5067 512.092 79.5733 512.839 80.64ZM483.719 113.92C483.719 117.44 485.105 120.64 487.879 123.52C490.652 126.293 494.012 127.68 497.959 127.68C501.905 127.68 505.159 126.24 507.719 123.36C510.385 120.48 511.719 117.333 511.719 113.92C511.719 110.4 510.439 107.147 507.879 104.16C505.425 101.173 502.065 99.68 497.799 99.68C493.639 99.68 490.225 101.173 487.559 104.16C484.999 107.147 483.719 110.4 483.719 113.92Z" fill="#3A3A3A"/>
</svg>
